<mxfile host="Electron" agent="Mozilla/5.0 (Windows NT 10.0; Win64; x64) AppleWebKit/537.36 (KHTML, like Gecko) draw.io/26.2.2 Chrome/134.0.6998.178 Electron/35.1.2 Safari/537.36" version="26.2.2">
  <diagram name="Página-1" id="4cpRVNlHdFnuh4_ySaQi">
    <mxGraphModel dx="1437" dy="1391" grid="1" gridSize="10" guides="1" tooltips="1" connect="1" arrows="1" fold="1" page="1" pageScale="1" pageWidth="1169" pageHeight="827" math="0" shadow="0">
      <root>
        <mxCell id="0" />
        <mxCell id="1" parent="0" />
        <mxCell id="ztusUwTHEelpv2hkBjMN-1" value="Tratar Reservas (1,2,5,6)" style="ellipse;whiteSpace=wrap;html=1;" vertex="1" parent="1">
          <mxGeometry x="494" y="190" width="90" height="80" as="geometry" />
        </mxCell>
        <mxCell id="ztusUwTHEelpv2hkBjMN-2" value="Visitante" style="rounded=0;whiteSpace=wrap;html=1;" vertex="1" parent="1">
          <mxGeometry x="30" y="30" width="120" height="60" as="geometry" />
        </mxCell>
        <mxCell id="ztusUwTHEelpv2hkBjMN-3" value="Funcionário" style="rounded=0;whiteSpace=wrap;html=1;" vertex="1" parent="1">
          <mxGeometry x="360" y="30" width="120" height="60" as="geometry" />
        </mxCell>
        <mxCell id="ztusUwTHEelpv2hkBjMN-4" value="Sistema de gestão predial" style="rounded=0;whiteSpace=wrap;html=1;" vertex="1" parent="1">
          <mxGeometry x="650" y="30" width="120" height="60" as="geometry" />
        </mxCell>
        <mxCell id="ztusUwTHEelpv2hkBjMN-5" value="Sistema de calendário corporativo" style="rounded=0;whiteSpace=wrap;html=1;" vertex="1" parent="1">
          <mxGeometry x="920" y="30" width="120" height="60" as="geometry" />
        </mxCell>
        <mxCell id="ztusUwTHEelpv2hkBjMN-6" value="" style="line;strokeWidth=1;rotatable=0;dashed=0;labelPosition=right;align=left;verticalAlign=middle;spacingTop=0;spacingLeft=6;points=[];portConstraint=eastwest;" vertex="1" parent="1">
          <mxGeometry x="400" y="404" width="80" height="10" as="geometry" />
        </mxCell>
        <mxCell id="ztusUwTHEelpv2hkBjMN-7" value="" style="line;strokeWidth=1;rotatable=0;dashed=0;labelPosition=right;align=left;verticalAlign=middle;spacingTop=0;spacingLeft=6;points=[];portConstraint=eastwest;" vertex="1" parent="1">
          <mxGeometry x="400" y="360" width="80" height="10" as="geometry" />
        </mxCell>
        <mxCell id="ztusUwTHEelpv2hkBjMN-8" value="Usuários" style="text;strokeColor=none;fillColor=none;align=left;verticalAlign=middle;spacingLeft=4;spacingRight=4;overflow=hidden;points=[[0,0.5],[1,0.5]];portConstraint=eastwest;rotatable=0;whiteSpace=wrap;html=1;" vertex="1" parent="1">
          <mxGeometry x="400" y="374" width="80" height="30" as="geometry" />
        </mxCell>
        <mxCell id="ztusUwTHEelpv2hkBjMN-9" value="Salas" style="text;strokeColor=none;fillColor=none;align=left;verticalAlign=middle;spacingLeft=4;spacingRight=4;overflow=hidden;points=[[0,0.5],[1,0.5]];portConstraint=eastwest;rotatable=0;whiteSpace=wrap;html=1;" vertex="1" parent="1">
          <mxGeometry x="530" y="374" width="40" height="30" as="geometry" />
        </mxCell>
        <mxCell id="ztusUwTHEelpv2hkBjMN-10" value="" style="line;strokeWidth=1;rotatable=0;dashed=0;labelPosition=right;align=left;verticalAlign=middle;spacingTop=0;spacingLeft=6;points=[];portConstraint=eastwest;" vertex="1" parent="1">
          <mxGeometry x="510" y="404" width="80" height="10" as="geometry" />
        </mxCell>
        <mxCell id="ztusUwTHEelpv2hkBjMN-11" value="" style="line;strokeWidth=1;rotatable=0;dashed=0;labelPosition=right;align=left;verticalAlign=middle;spacingTop=0;spacingLeft=6;points=[];portConstraint=eastwest;" vertex="1" parent="1">
          <mxGeometry x="510" y="360" width="80" height="10" as="geometry" />
        </mxCell>
        <mxCell id="ztusUwTHEelpv2hkBjMN-12" value="Reservas" style="text;strokeColor=none;fillColor=none;align=left;verticalAlign=middle;spacingLeft=4;spacingRight=4;overflow=hidden;points=[[0,0.5],[1,0.5]];portConstraint=eastwest;rotatable=0;whiteSpace=wrap;html=1;" vertex="1" parent="1">
          <mxGeometry x="632.5" y="374" width="65" height="30" as="geometry" />
        </mxCell>
        <mxCell id="ztusUwTHEelpv2hkBjMN-13" value="" style="line;strokeWidth=1;rotatable=0;dashed=0;labelPosition=right;align=left;verticalAlign=middle;spacingTop=0;spacingLeft=6;points=[];portConstraint=eastwest;" vertex="1" parent="1">
          <mxGeometry x="625" y="400" width="80" height="14" as="geometry" />
        </mxCell>
        <mxCell id="ztusUwTHEelpv2hkBjMN-14" value="" style="line;strokeWidth=1;rotatable=0;dashed=0;labelPosition=right;align=left;verticalAlign=middle;spacingTop=0;spacingLeft=6;points=[];portConstraint=eastwest;" vertex="1" parent="1">
          <mxGeometry x="625" y="360" width="80" height="10" as="geometry" />
        </mxCell>
        <mxCell id="ztusUwTHEelpv2hkBjMN-15" value="" style="endArrow=classic;startArrow=classic;html=1;rounded=0;exitX=0.488;exitY=0.471;exitDx=0;exitDy=0;exitPerimeter=0;" edge="1" parent="1" source="ztusUwTHEelpv2hkBjMN-11">
          <mxGeometry width="50" height="50" relative="1" as="geometry">
            <mxPoint x="494" y="320" as="sourcePoint" />
            <mxPoint x="544" y="270" as="targetPoint" />
            <Array as="points">
              <mxPoint x="549" y="320" />
            </Array>
          </mxGeometry>
        </mxCell>
        <mxCell id="ztusUwTHEelpv2hkBjMN-16" value="" style="endArrow=classic;startArrow=classic;html=1;rounded=0;exitX=0.539;exitY=0.662;exitDx=0;exitDy=0;exitPerimeter=0;" edge="1" parent="1" source="ztusUwTHEelpv2hkBjMN-14" target="ztusUwTHEelpv2hkBjMN-1">
          <mxGeometry width="50" height="50" relative="1" as="geometry">
            <mxPoint x="559" y="375" as="sourcePoint" />
            <mxPoint x="554" y="280" as="targetPoint" />
            <Array as="points">
              <mxPoint x="660" y="320" />
            </Array>
          </mxGeometry>
        </mxCell>
        <mxCell id="ztusUwTHEelpv2hkBjMN-18" value="" style="endArrow=classic;html=1;rounded=0;" edge="1" parent="1" source="ztusUwTHEelpv2hkBjMN-7">
          <mxGeometry width="50" height="50" relative="1" as="geometry">
            <mxPoint x="460" y="310" as="sourcePoint" />
            <mxPoint x="510" y="260" as="targetPoint" />
            <Array as="points">
              <mxPoint x="460" y="310" />
            </Array>
          </mxGeometry>
        </mxCell>
        <mxCell id="ztusUwTHEelpv2hkBjMN-19" value="2. Tratar Usuários (2,4)" style="ellipse;whiteSpace=wrap;html=1;" vertex="1" parent="1">
          <mxGeometry x="505" y="470" width="90" height="80" as="geometry" />
        </mxCell>
        <mxCell id="ztusUwTHEelpv2hkBjMN-20" value="Gerente" style="rounded=0;whiteSpace=wrap;html=1;" vertex="1" parent="1">
          <mxGeometry x="494" y="750" width="120" height="60" as="geometry" />
        </mxCell>
        <mxCell id="ztusUwTHEelpv2hkBjMN-21" value="Sistema de autenticação de usuários" style="rounded=0;whiteSpace=wrap;html=1;" vertex="1" parent="1">
          <mxGeometry x="780" y="760" width="120" height="60" as="geometry" />
        </mxCell>
        <mxCell id="ztusUwTHEelpv2hkBjMN-23" value="" style="curved=1;endArrow=classic;html=1;rounded=0;entryX=0.615;entryY=-0.033;entryDx=0;entryDy=0;entryPerimeter=0;" edge="1" parent="1" target="ztusUwTHEelpv2hkBjMN-21">
          <mxGeometry width="50" height="50" relative="1" as="geometry">
            <mxPoint x="595" y="500" as="sourcePoint" />
            <mxPoint x="645" y="450" as="targetPoint" />
            <Array as="points">
              <mxPoint x="645" y="500" />
              <mxPoint x="770" y="590" />
            </Array>
          </mxGeometry>
        </mxCell>
        <mxCell id="ztusUwTHEelpv2hkBjMN-24" value="" style="curved=1;endArrow=classic;html=1;rounded=0;entryX=1;entryY=1;entryDx=0;entryDy=0;exitX=0;exitY=0;exitDx=0;exitDy=0;" edge="1" parent="1" source="ztusUwTHEelpv2hkBjMN-21" target="ztusUwTHEelpv2hkBjMN-19">
          <mxGeometry width="50" height="50" relative="1" as="geometry">
            <mxPoint x="605" y="510" as="sourcePoint" />
            <mxPoint x="864" y="768" as="targetPoint" />
            <Array as="points">
              <mxPoint x="690" y="670" />
              <mxPoint x="670" y="620" />
            </Array>
          </mxGeometry>
        </mxCell>
        <mxCell id="ztusUwTHEelpv2hkBjMN-25" value="" style="curved=1;endArrow=classic;html=1;rounded=0;entryX=1;entryY=1;entryDx=0;entryDy=0;exitX=1;exitY=0;exitDx=0;exitDy=0;" edge="1" parent="1" source="ztusUwTHEelpv2hkBjMN-20">
          <mxGeometry width="50" height="50" relative="1" as="geometry">
            <mxPoint x="758" y="772" as="sourcePoint" />
            <mxPoint x="560" y="550" as="targetPoint" />
            <Array as="points">
              <mxPoint x="600" y="680" />
              <mxPoint x="600" y="630" />
            </Array>
          </mxGeometry>
        </mxCell>
        <mxCell id="ztusUwTHEelpv2hkBjMN-26" value="" style="curved=1;endArrow=classic;html=1;rounded=0;entryX=0;entryY=1;entryDx=0;entryDy=0;exitX=0;exitY=0;exitDx=0;exitDy=0;" edge="1" parent="1" source="ztusUwTHEelpv2hkBjMN-20" target="ztusUwTHEelpv2hkBjMN-19">
          <mxGeometry width="50" height="50" relative="1" as="geometry">
            <mxPoint x="355" y="590" as="sourcePoint" />
            <mxPoint x="614" y="848" as="targetPoint" />
            <Array as="points">
              <mxPoint x="470" y="640" />
            </Array>
          </mxGeometry>
        </mxCell>
        <mxCell id="ztusUwTHEelpv2hkBjMN-27" value="" style="endArrow=classic;startArrow=classic;html=1;rounded=0;exitX=0;exitY=0.5;exitDx=0;exitDy=0;" edge="1" parent="1" source="ztusUwTHEelpv2hkBjMN-19">
          <mxGeometry width="50" height="50" relative="1" as="geometry">
            <mxPoint x="444.5" y="499" as="sourcePoint" />
            <mxPoint x="439.5" y="404" as="targetPoint" />
            <Array as="points">
              <mxPoint x="450" y="490" />
            </Array>
          </mxGeometry>
        </mxCell>
        <mxCell id="ztusUwTHEelpv2hkBjMN-28" value="" style="curved=1;endArrow=classic;html=1;rounded=0;entryX=0;entryY=1;entryDx=0;entryDy=0;exitX=0.07;exitY=0.663;exitDx=0;exitDy=0;exitPerimeter=0;" edge="1" parent="1" source="ztusUwTHEelpv2hkBjMN-1">
          <mxGeometry width="50" height="50" relative="1" as="geometry">
            <mxPoint x="54" y="301" as="sourcePoint" />
            <mxPoint x="79" y="90" as="targetPoint" />
            <Array as="points">
              <mxPoint x="110" y="243" />
            </Array>
          </mxGeometry>
        </mxCell>
        <mxCell id="ztusUwTHEelpv2hkBjMN-29" value="" style="curved=1;endArrow=classic;html=1;rounded=0;entryX=0;entryY=0;entryDx=0;entryDy=0;exitX=1;exitY=1;exitDx=0;exitDy=0;" edge="1" parent="1" source="ztusUwTHEelpv2hkBjMN-2" target="ztusUwTHEelpv2hkBjMN-1">
          <mxGeometry width="50" height="50" relative="1" as="geometry">
            <mxPoint x="510" y="253" as="sourcePoint" />
            <mxPoint x="89" y="100" as="targetPoint" />
            <Array as="points">
              <mxPoint x="200" y="210" />
            </Array>
          </mxGeometry>
        </mxCell>
        <mxCell id="ztusUwTHEelpv2hkBjMN-30" value="" style="curved=1;endArrow=classic;html=1;rounded=0;entryX=0.5;entryY=0;entryDx=0;entryDy=0;exitX=1;exitY=1;exitDx=0;exitDy=0;" edge="1" parent="1" target="ztusUwTHEelpv2hkBjMN-1">
          <mxGeometry width="50" height="50" relative="1" as="geometry">
            <mxPoint x="460" y="90" as="sourcePoint" />
            <mxPoint x="818" y="201" as="targetPoint" />
            <Array as="points">
              <mxPoint x="500" y="170" />
            </Array>
          </mxGeometry>
        </mxCell>
        <mxCell id="ztusUwTHEelpv2hkBjMN-31" value="" style="curved=1;endArrow=classic;html=1;rounded=0;entryX=0.5;entryY=1;entryDx=0;entryDy=0;exitX=0.289;exitY=0;exitDx=0;exitDy=0;exitPerimeter=0;" edge="1" parent="1" source="ztusUwTHEelpv2hkBjMN-1" target="ztusUwTHEelpv2hkBjMN-3">
          <mxGeometry width="50" height="50" relative="1" as="geometry">
            <mxPoint x="390" y="120" as="sourcePoint" />
            <mxPoint x="469" y="220" as="targetPoint" />
            <Array as="points">
              <mxPoint x="430" y="200" />
            </Array>
          </mxGeometry>
        </mxCell>
        <mxCell id="ztusUwTHEelpv2hkBjMN-33" value="" style="curved=1;endArrow=classic;html=1;rounded=0;entryX=0.5;entryY=1;entryDx=0;entryDy=0;exitX=0.25;exitY=1;exitDx=0;exitDy=0;" edge="1" parent="1" source="ztusUwTHEelpv2hkBjMN-4">
          <mxGeometry width="50" height="50" relative="1" as="geometry">
            <mxPoint x="740" y="100" as="sourcePoint" />
            <mxPoint x="575" y="210" as="targetPoint" />
            <Array as="points">
              <mxPoint x="685" y="190" />
            </Array>
          </mxGeometry>
        </mxCell>
        <mxCell id="ztusUwTHEelpv2hkBjMN-34" value="" style="curved=1;endArrow=classic;html=1;rounded=0;entryX=0.944;entryY=0.696;entryDx=0;entryDy=0;exitX=1;exitY=1;exitDx=0;exitDy=0;entryPerimeter=0;" edge="1" parent="1" target="ztusUwTHEelpv2hkBjMN-1">
          <mxGeometry width="50" height="50" relative="1" as="geometry">
            <mxPoint x="1030" y="90" as="sourcePoint" />
            <mxPoint x="850" y="220" as="targetPoint" />
            <Array as="points">
              <mxPoint x="1030" y="300" />
            </Array>
          </mxGeometry>
        </mxCell>
        <mxCell id="ztusUwTHEelpv2hkBjMN-35" value="" style="curved=1;endArrow=classic;html=1;rounded=0;exitX=1;exitY=0.5;exitDx=0;exitDy=0;entryX=0.131;entryY=1.017;entryDx=0;entryDy=0;entryPerimeter=0;" edge="1" parent="1" source="ztusUwTHEelpv2hkBjMN-1">
          <mxGeometry width="50" height="50" relative="1" as="geometry">
            <mxPoint x="860" y="197" as="sourcePoint" />
            <mxPoint x="971" y="90" as="targetPoint" />
            <Array as="points">
              <mxPoint x="900" y="230" />
            </Array>
          </mxGeometry>
        </mxCell>
      </root>
    </mxGraphModel>
  </diagram>
</mxfile>
